<svg id="Layer_1" data-name="Layer 1" xmlns="http://www.w3.org/2000/svg" viewBox="0 0 52.04 52.02"><defs><style>.cls-1{fill:#fff;opacity:0.15;}</style></defs><path class="cls-1" d="M25.44,0A26,26,0,1,0,52,23.89,26,26,0,0,0,25.44,0Zm12.1,30H30v7.52a1.59,1.59,0,0,1-1.59,1.59H23.6A1.59,1.59,0,0,1,22,37.53V30H14.5a1.59,1.59,0,0,1-1.59-1.59V23.6A1.59,1.59,0,0,1,14.5,22H22V14.49A1.59,1.59,0,0,1,23.6,12.9h4.83A1.59,1.59,0,0,1,30,14.49V22h7.52a1.59,1.59,0,0,1,1.59,1.59v4.82A1.59,1.59,0,0,1,37.54,30Z"/></svg>