<svg id="Layer_1" data-name="Layer 1" xmlns="http://www.w3.org/2000/svg" viewBox="0 0 52.04 52.02"><defs><style>.cls-1{fill:#db524d;}</style></defs><path class="cls-1" d="M26,52a26,26,0,1,1,26-26A26,26,0,0,1,26,52ZM22.26,28c-2.33-2.33-4.34-4.36-6.37-6.36a2.25,2.25,0,0,0-3.51,0c-.9.86-1.79,1.74-2.64,2.65a2.24,2.24,0,0,0,0,3.51Q15,33.14,20.4,38.44a2.23,2.23,0,0,0,3.33,0q9.35-9.33,18.67-18.69a2.15,2.15,0,0,0,0-3.31C41.65,15.6,40.81,14.79,40,14c-1.55-1.52-2.56-1.51-4.11,0q-6.4,6.39-12.79,12.81A8.87,8.87,0,0,0,22.26,28Z"/></svg>