<svg id="Layer_1" data-name="Layer 1" xmlns="http://www.w3.org/2000/svg" viewBox="0 0 52.04 52.02"><defs><style>.cls-1{opacity:0.15;}</style></defs><path class="cls-1" d="M31.93,51.48V32.54c1.61,0,3.15,0,4.68,0,.93,0,1.35-.24,1.43-1.22.16-2,.45-3.92.71-6.13H31.86c0-1.75-.08-3.29,0-4.82a2,2,0,0,1,2.2-1.89c1.44,0,2.88,0,4.47,0V11.16c-3.19,0-6.37-.32-9.47.08-3.8.48-6,3.23-6.18,7.11-.12,2.19,0,4.39,0,6.81H18.61v7.39h4.14V51.78c-8.38,0-20.4-7.91-22.45-21.5a26,26,0,0,1,51.41-8.07C54,36.28,44.39,48.93,31.93,51.48Z"/></svg>