<svg id="Layer_1" data-name="Layer 1" xmlns="http://www.w3.org/2000/svg" viewBox="0 0 320.87 52.02"><defs><style>.cls-1{fill:#fff;}</style></defs><path class="cls-1" d="M95.25,22.6C95.25,30,90,36.5,80.43,36.5h-6V47.14a3.69,3.69,0,0,1-7.38,0V12.33A3.6,3.6,0,0,1,70.65,8.7h9.78C90,8.7,95.25,15.28,95.25,22.6Zm-7.56-.06c0-4.19-2.83-7.26-8-7.26H74.4V30h5.23C84.86,30,87.69,26.84,87.69,22.54Z"/><path class="cls-1" d="M93.53,36.68c0-8.36,6.34-14.33,14.52-14.33s14.58,6,14.58,14.33a14.55,14.55,0,0,1-29.1,0Zm22,0c0-5.29-3.44-8.24-7.44-8.24s-7.38,2.95-7.38,8.24,3.44,8.3,7.38,8.3S115.49,41.91,115.49,36.68Z"/><path class="cls-1" d="M166.38,32.13V47.2a3.51,3.51,0,1,1-7,0V33.61c0-3.88-2.21-5.11-4.55-5.11s-4.31,1.48-5.6,3.82V47.2a3.51,3.51,0,1,1-7,0V33.55c0-3.82-2.21-5-4.49-5s-4.36,1.48-5.66,3.94V47.2a3.56,3.56,0,0,1-3.5,3.63A3.61,3.61,0,0,1,125,47.2V26.29a3.56,3.56,0,0,1,3.51-3.57,3.51,3.51,0,0,1,3.5,3.57v.12a9.84,9.84,0,0,1,8.06-4.12,8.5,8.5,0,0,1,8,4.61,10.81,10.81,0,0,1,9.05-4.61C161.88,22.29,166.38,25.12,166.38,32.13Z"/><path class="cls-1" d="M168.61,36.68c0-8.36,6.34-14.33,14.52-14.33s14.58,6,14.58,14.33a14.55,14.55,0,0,1-29.1,0Zm22,0c0-5.29-3.44-8.24-7.44-8.24s-7.38,2.95-7.38,8.24,3.44,8.3,7.38,8.3S190.57,41.91,190.57,36.68Z"/><path class="cls-1" d="M207.42,16.51V22.9h4.8a2.91,2.91,0,0,1,2.89,3,2.88,2.88,0,0,1-2.89,3h-4.8V47.2a3.51,3.51,0,1,1-7,0V28.87h-1.29a2.94,2.94,0,0,1-3-3,3,3,0,0,1,3-3h1.29V16.57c0-5.6,3.51-10.15,10.09-10.15a12.71,12.71,0,0,1,4.37.74c1.78.68,2.89,1.66,2.89,3.38a3.07,3.07,0,0,1-2.89,3.14,5,5,0,0,1-2-.49,7.74,7.74,0,0,0-2.16-.43C208.47,12.76,207.42,14.29,207.42,16.51Z"/><path class="cls-1" d="M213.4,36.68c0-8.36,6.34-14.33,14.52-14.33s14.57,6,14.57,14.33a14.55,14.55,0,0,1-29.09,0Zm22,0c0-5.29-3.45-8.24-7.44-8.24s-7.39,2.95-7.39,8.24S224,45,227.92,45,235.36,41.91,235.36,36.68Z"/><path class="cls-1" d="M244.31,36.74c0-8.55,6.27-14.45,14.64-14.45a13.87,13.87,0,0,1,7.63,2.09,3.51,3.51,0,0,1,1.72,2.83,3,3,0,0,1-3,3.14,5.74,5.74,0,0,1-2.4-.62,8.58,8.58,0,0,0-3.75-.92,7.52,7.52,0,0,0-7.69,7.93,7.93,7.93,0,0,0,11.87,6.89,4.91,4.91,0,0,1,2-.49,2.81,2.81,0,0,1,3,2.89,3.57,3.57,0,0,1-2.22,3.2,13.94,13.94,0,0,1-7.26,1.91C250.46,51.14,244.31,45.11,244.31,36.74Z"/><path class="cls-1" d="M296.44,26.23v21a3.47,3.47,0,0,1-3.51,3.51,3.51,3.51,0,0,1-3.51-3.51v-.37a11,11,0,0,1-8.61,4.24c-5.22,0-9.65-3.5-9.65-9.9V26.23a3.6,3.6,0,0,1,3.44-3.63,3.66,3.66,0,0,1,3.57,3.63V39.7C278.17,43,280,45,283.09,45c2.58,0,4.86-1.53,6.33-4.3V26.23a3.61,3.61,0,0,1,3.51-3.63A3.57,3.57,0,0,1,296.44,26.23Z"/><path class="cls-1" d="M300.88,49a3.21,3.21,0,0,1-2.09-2.95,2.72,2.72,0,0,1,2.7-2.83,9.5,9.5,0,0,1,3.14.93,13.73,13.73,0,0,0,5.23,1.17c3.08,0,4.43-1,4.43-2.47,0-1.72-2.09-2.46-6-3.69-4.73-1.47-9-3.32-9-8.55,0-4.73,3.69-8.3,10.64-8.3a21.36,21.36,0,0,1,7.57,1.41,3.18,3.18,0,0,1,2.46,3,2.72,2.72,0,0,1-2.71,3,11.32,11.32,0,0,1-2.83-.74,15.67,15.67,0,0,0-4.55-.8c-2.71,0-3.94,1-3.94,2.34,0,1.66,1.72,2.27,6.34,3.75s8.61,3.32,8.61,8.31S317,51.14,310,51.14A20.24,20.24,0,0,1,300.88,49Z"/><path class="cls-1" d="M26,52a26,26,0,1,1,26-26A26,26,0,0,1,26,52ZM22.26,28c-2.33-2.33-4.34-4.36-6.37-6.36a2.25,2.25,0,0,0-3.51,0c-.9.86-1.79,1.74-2.64,2.65a2.24,2.24,0,0,0,0,3.51Q15,33.14,20.4,38.44a2.23,2.23,0,0,0,3.33,0q9.35-9.33,18.67-18.69a2.15,2.15,0,0,0,0-3.31C41.65,15.6,40.81,14.79,40,14c-1.55-1.52-2.56-1.51-4.11,0q-6.4,6.39-12.79,12.81A8.87,8.87,0,0,0,22.26,28Z"/></svg>