<svg id="Layer_1" data-name="Layer 1" xmlns="http://www.w3.org/2000/svg" viewBox="0 0 52.04 52.02"><defs><style>.cls-1{opacity:0.15;}</style></defs><path class="cls-1" d="M26.08,0A26,26,0,1,1,0,25.92,26,26,0,0,1,26.08,0ZM23.86,33.27c3.64,2.94,7.79,3,11.4.42,5.23-3.78,7.24-13,4-18.59-2.93-4.95-7.55-6.7-13.08-6.51-7.09.25-12.76,4.61-14.07,11-.72,3.55-.36,7,2.52,9.62a7.44,7.44,0,0,0,2.24,1,12.18,12.18,0,0,0,.87-2.33c.07-.43-.36-.94-.53-1.42A14.63,14.63,0,0,1,16.07,23a10,10,0,0,1,8.26-10.49c6.17-1.17,10.87,2,11.15,7.67a15.15,15.15,0,0,1-.21,3.36c-.52,2.94-1.37,5.76-4,7.58a4,4,0,0,1-4.66.11c-1.27-.94-1.59-2.22-1-4.2s1.15-3.79,1.57-5.72c.47-2.11-.26-3.65-1.75-4.18A3.45,3.45,0,0,0,21,19.29a23.23,23.23,0,0,0-.54,5.31,23,23,0,0,1-.05,3.11c-.77,3.71-1.76,7.39-2.48,11.12a17,17,0,0,0,.28,7.31C21.8,42.4,22.79,37.9,23.86,33.27Z"/></svg>