<svg id="Layer_1" data-name="Layer 1" xmlns="http://www.w3.org/2000/svg" viewBox="0 0 52.04 52.02"><defs><style>.cls-1{opacity:0.15;}</style></defs><path class="cls-1" d="M52,25.92A26,26,0,1,1,25.94,0,26,26,0,0,1,52,25.92ZM10.88,12.12c-1.78,3.91-1,7.05,2,10.13l-3.11-.77C10,25.12,12,27.33,15,28.94l-2.43.17c1.18,3,3.48,4.54,6.71,5.2C16,36.75,12.62,37.44,8.71,37.39c.42.34.53.46.66.54A21.52,21.52,0,0,0,41.5,19.75a2.81,2.81,0,0,1,1.1-2.47,27.54,27.54,0,0,0,2.73-2.85l-3.63.88c.9-1.27,1.69-2.36,2.47-3.45a3.09,3.09,0,0,0-1.7.31c-1.6.72-3,1-4.68-.24-2.38-1.77-5.18-1.62-7.75-.12a7.25,7.25,0,0,0-3.74,6.68V20C20.08,19.56,15.14,16.86,10.88,12.12Z"/></svg>